<?xml version="1.0" encoding="utf-8"?>

<!-- The icon can be used freely in both personal and commercial projects with no attribution required, but always appreciated. 
You may NOT sub-license, resell, rent, redistribute or otherwise transfer the icon without express written permission from iconmonstr.com -->

<!DOCTYPE svg PUBLIC "-//W3C//DTD SVG 1.1//EN" "http://www.w3.org/Graphics/SVG/1.1/DTD/svg11.dtd">
<svg version="1.1" xmlns="http://www.w3.org/2000/svg" xmlns:xlink="http://www.w3.org/1999/xlink" x="0px" y="0px"
	 width="512px" height="512px" fill="#00bcd4" viewBox="0 0 512 512" enable-background="new 0 0 512 512" xml:space="preserve">
<path id="book-23-icon" d="M85.273,304.089c-1.096,4.595,5.002,7.474,7.026,2.59c2.465-5.951,6.417-31.23,9.874-56.681
	c1.847-13.61,20.062-11.939,20.018,2.127c-0.068,21.891-0.058,40.116-0.006,72.55c0.042,27.65-12.692,28.197-21.976,59.221
	c-1.591,5.315-2.952,11.123-4.073,16.79L50,384.588c16.08-31.452,8.335-56.297,6.726-76.641
	c-2.197-27.802,5.193-30.498,39.484-63.902C94.144,258.718,89.859,284.846,85.273,304.089z M426.727,304.089
	c1.096,4.595-5.002,7.474-7.026,2.59c-2.465-5.951-6.417-31.23-9.874-56.681c-1.847-13.61-20.062-11.939-20.018,2.127
	c0.068,21.891,0.058,40.116,0.006,72.55c-0.042,27.65,12.692,28.197,21.976,59.221c1.591,5.315,2.952,11.123,4.073,16.79
	L462,384.588c-16.08-31.452-8.335-56.297-6.726-76.641c2.197-27.802-5.193-30.498-39.484-63.902
	C417.856,258.718,422.141,284.846,426.727,304.089z M378.779,352.332c-4.878-11.299-5.16-21.287-5.142-30.461H138.362
	c0.019,9.185-0.262,19.158-5.142,30.461H378.779z M133.318,235.575v-93.8h245.206v94.027c7.833-11.375,22.928-14.478,34.268-8.048
	v-92.071c0-13.459-10.91-24.369-24.368-24.369H123.42c-13.46,0-24.369,10.91-24.369,24.369v92.158
	C110.292,221.361,125.377,224.297,133.318,235.575z M349.917,169.339H163.083v19.744h186.834V169.339z M349.917,204.878H163.083
	v19.745h186.834V204.878z M349.917,240.418H163.083v19.745h186.834V240.418z M256.604,275.958h-93.521v19.744h93.521V275.958z"/>
</svg>
